<svg xmlns="http://www.w3.org/2000/svg" aria-hidden="true" style="position:absolute;width:0;height:0;overflow:hidden">
  <defs>
    <symbol id="bg-fone" viewBox="0 0 14 32">
      <path fill="#8acecf" d="M2.558 5.465C-.334 4.33 1.443 2.473.41 1.029A2.823 2.823 0 0 0 0 .565v12.184c1.331-.942 2.777-2.618 3.467-3.261C4.706 8.333 5.45 6.6 2.558 5.465z" style="fill:var(--color1, #8acecf)"/>
      <path d="M.639 6.878h.499v.499H.639v-.499zM.889 9.424h.499v.499H.889v-.499z" style="fill:var(--color2, #000)"/>
      <path fill="#6f6f6f" d="M13.281 2.934c-.568-.694-.551-1.341-.472-1.577.053-.157.854-1.038 1.567-1.356V6.5c-.239-.101-.42-.345-.418-.799.005-1.509.033-1.899-.677-2.766z" style="fill:var(--color3, #6f6f6f)"/>
      <path d="M13.108 1.697h.499v.499h-.499v-.499zM12.859 4.063h.499v.499h-.499v-.499z" style="fill:var(--color2, #000)"/>
      <path fill="#bdbdbd" d="M12.599 7.953c-.791-.771-1.22-1.236-.701-1.766.544-.555 1.009.729 1.76.927.245.064.485.038.718-.016v6.159c-.367-.315-.564-.851-1.139-1.247-1.039-.714-.638-1.44-.35-1.816s.701-1.277-.288-2.241z" style="fill:var(--color4, #bdbdbd)"/>
      <path d="M13.607 9.174h.499v.499h-.499v-.499z" style="fill:var(--color2, #000)"/>
      <path fill="#8acecf" d="M11.812 19.191c2.892-1.135 1.116-2.992 2.148-4.436.133-.186.272-.341.416-.469v12.193c-1.333-.941-2.782-2.621-3.473-3.265-1.239-1.155-1.983-2.888.909-4.023z" style="fill:var(--color1, #8acecf)"/>
      <path d="M13.731 20.604h-.499v.499h.499v-.499zM13.482 23.149h-.499v.499h.499v-.499z" style="fill:var(--color2, #000)"/>
      <path fill="#6f6f6f" d="M1.09 16.66c.569-.694.552-1.342.472-1.579-.052-.156-.85-1.034-1.562-1.355v6.501c.237-.103.414-.347.413-.797-.005-1.511-.033-1.901.677-2.769z" style="fill:var(--color3, #6f6f6f)"/>
      <path d="M1.262 15.423H.763v.499h.499v-.499zM1.512 17.789h-.499v.499h.499v-.499z" style="fill:var(--color2, #000)"/>
      <path fill="#bdbdbd" d="M1.772 21.679c.791-.771 1.22-1.236.701-1.766-.544-.555-1.009.729-1.76.927-.242.064-.481.039-.712-.014v6.152c.364-.315.561-.848 1.133-1.242 1.039-.714.638-1.44.35-1.816s-.701-1.277.288-2.241z" style="fill:var(--color4, #bdbdbd)"/>
      <path d="M0 22.34zm0-.001-.019-.005-.001.002v.003H0zm0-.001zm.152-.739zm.025-.127zm.359-.543zm.524.022zm.383.338zm.043.212zm-.108.197zm-.154.454-.02.001.02-.001zm.088.531zm.016.076zm.08.637zm-.235.545zm-.374.149zm-.054.006zm-.23.064zm-.277.218zm-.082.385zm.17.432zm.013.028zm.172.469zm-.125.417zm-.377.127zM0 26.235h-.02v.017l.017.003.003-.02zm.02-3.895v-.001h-.04v.001h.04zm-.001.004v-.001l-.039-.01v.001l.039.01zm.001-.001c.05-.203.096-.443.152-.74l-.039-.008c-.057.298-.102.537-.152.738l.039.01zm.152-.74.024-.126-.039-.008-.024.127.039.008zm.024-.127c.057-.297.19-.459.348-.529l-.016-.036c-.173.077-.312.252-.371.558l.039.008zm.348-.529a.635.635 0 0 1 .508.022l.016-.037c-.171-.075-.369-.099-.54-.022l.016.036zm.508.022a.774.774 0 0 1 .373.329l.036-.018a.813.813 0 0 0-.392-.347l-.016.037zm.373.329c.034.066.05.135.042.2l.04.005a.385.385 0 0 0-.046-.223l-.036.018zm.041.2a.297.297 0 0 1-.102.185l.027.03a.337.337 0 0 0 .115-.21l-.04-.005zm-.101.185c-.131.119-.167.283-.16.469l.04-.002c-.007-.181.029-.331.147-.438l-.027-.03zm-.161.47c.006.164.047.348.088.535l.039-.009c-.041-.188-.081-.368-.087-.528l-.04.002zm.088.535.017.076.039-.009-.017-.076-.039.009zm.017.075c.046.214.089.431.079.632l.04.002a2.515 2.515 0 0 0-.08-.642l-.039.009zm.079.632a.732.732 0 0 1-.229.531l.027.029a.772.772 0 0 0 .241-.559l-.04-.002zm-.229.531c-.126.117-.239.13-.362.144l.004.04c.124-.014.249-.027.385-.154l-.027-.029zm-.362.144-.055.006.005.04.054-.006-.004-.04zm-.055.006a.735.735 0 0 0-.236.066l.017.036a.682.682 0 0 1 .224-.062l-.005-.04zm-.236.066a.956.956 0 0 0-.283.223l.029.027a.919.919 0 0 1 .271-.214l-.017-.036zm-.283.223c-.107.116-.119.255-.086.403l.039-.009c-.031-.14-.018-.264.077-.367l-.029-.027zm-.086.402c.031.139.101.288.171.436l.036-.017a2.12 2.12 0 0 1-.168-.428l-.039.009zm.171.437.013.028.036-.017-.013-.028-.036.017zm.013.028c.075.158.147.316.17.464l.039-.006a1.913 1.913 0 0 0-.173-.475l-.036.017zm.17.464a.43.43 0 0 1-.119.4l.028.028a.469.469 0 0 0 .13-.434l-.039.006zm-.119.399a.405.405 0 0 1-.361.121l-.006.04a.448.448 0 0 0 .395-.132l-.028-.028zm-.361.121-.009-.001-.006.04.009.001.006-.04zm.009.019v-.009h-.04v.009h.04zm0-.009V22.34h-.04v3.886h.04zM.763 22.9H.264v.499h.499V22.9z" style="fill:var(--color2, #000)"/>
      <path fill="#6f6f6f" d="M13.282 30.95c-.568-.694-.551-1.341-.472-1.577.053-.157.854-1.038 1.567-1.356v3.954h-.517c-.09-.34-.26-.632-.578-1.02z" style="fill:var(--color3, #6f6f6f)"/>
      <path d="M13.109 29.703h.499v.499h-.499v-.499z" style="fill:var(--color2, #000)"/>
      <path fill="#8acecf" d="M.41 28.47a2.823 2.823 0 0 0-.41-.464v3.964h1.172c-.81-1.074.021-2.406-.762-3.5z" style="fill:var(--color1, #8acecf)"/>
    </symbol>
    <symbol id="footer-logo" viewBox="0 0 75 32">
      <path fill="none" stroke="#000" stroke-linecap="round" stroke-linejoin="round" stroke-width=".914" d="m8.734 9.943-7.94 8 7.94 8M24.614 9.943l7.94 8-7.94 8" style="stroke:var(--color2, #000)"/>
      <path d="m19.48 4.034-6.818 25.637a.649.649 0 1 1-1.252-.338l6.818-25.637a.649.649 0 1 1 1.252.338z" style="fill:var(--color2, #000)"/>
      <path fill="#d9d9d9" d="M18.228 3.696a.649.649 0 1 1 1.252.338l-.83 3.123-1.252-.338.83-3.123z" style="fill:var(--color5, #d9d9d9)"/>
      <path fill="none" stroke="#000" stroke-linecap="round" stroke-width=".686" d="m20.401 5.618 2.504.676M14.141 3.928l2.504.676M15.598.969l1.3 2.247M13.963 7.117l2.241-1.291M20.068 6.869l1.3 2.247M20.762 4.26l2.241-1.291" style="stroke:var(--color2, #000)"/>
      <path d="M43.682 12.058a3.635 3.635 0 0 1-1.791-.442 3.276 3.276 0 0 1-1.248-1.219c-.299-.525-.448-1.11-.448-1.757s.149-1.229.448-1.747c.305-.525.724-.934 1.258-1.229s1.131-.442 1.791-.442c.495 0 .953.083 1.372.25s.775.41 1.067.73l-.448.451c-.521-.531-1.178-.797-1.972-.797-.527 0-1.007.122-1.439.365s-.772.576-1.019.998c-.241.422-.362.896-.362 1.421s.121.998.362 1.421c.248.422.588.755 1.019.998s.911.365 1.439.365c.8 0 1.458-.269 1.972-.806l.448.451a2.93 2.93 0 0 1-1.077.739c-.419.166-.877.25-1.372.25zm5.634-.01c-.483 0-.917-.109-1.305-.326-.388-.224-.692-.531-.915-.922s-.333-.832-.333-1.325.111-.934.333-1.325c.223-.39.527-.694.915-.912s.822-.326 1.305-.326.918.109 1.306.326.689.522.905.912c.222.39.333.832.333 1.325s-.111.934-.333 1.325a2.38 2.38 0 0 1-.905.922 2.618 2.618 0 0 1-1.306.326zm0-.605c.356 0 .673-.08.953-.24.286-.166.508-.4.667-.701s.238-.643.238-1.027-.08-.726-.238-1.027a1.66 1.66 0 0 0-.667-.691c-.28-.166-.597-.25-.953-.25s-.676.083-.962.25c-.279.16-.502.39-.667.691-.159.301-.238.643-.238 1.027s.08.726.238 1.027c.166.301.388.534.667.701.286.16.607.24.962.24zm8.498-6.566V12h-.648v-.998a2.065 2.065 0 0 1-.81.778 2.324 2.324 0 0 1-1.125.269c-.47 0-.896-.109-1.277-.326s-.679-.522-.896-.912c-.216-.39-.324-.835-.324-1.334s.108-.944.324-1.334a2.26 2.26 0 0 1 .896-.902 2.525 2.525 0 0 1 1.277-.326c.407 0 .772.086 1.096.259.331.166.6.413.81.739V4.879h.677zm-2.525 6.566c.35 0 .664-.08.944-.24.286-.166.508-.4.667-.701.165-.301.248-.643.248-1.027s-.083-.726-.248-1.027a1.66 1.66 0 0 0-.667-.691 1.815 1.815 0 0 0-.944-.25 1.87 1.87 0 0 0-.962.25c-.279.16-.502.39-.667.691-.159.301-.238.643-.238 1.027s.08.726.238 1.027c.166.301.388.534.667.701.286.16.607.24.962.24zm4.409-4.493h.676V12h-.676V6.95zm.343-1.104c-.14 0-.257-.048-.352-.144a.474.474 0 0 1 0-.682c.095-.096.213-.144.352-.144s.257.048.352.144c.096.09.143.198.143.326 0 .141-.048.259-.143.355s-.213.144-.352.144zm4.77 1.066c.629 0 1.127.186 1.496.557.375.365.562.899.562 1.603V12h-.677V9.139c0-.525-.13-.925-.391-1.2s-.632-.413-1.115-.413c-.54 0-.969.163-1.286.49-.311.32-.467.765-.467 1.334V12h-.677V6.95h.648v.931c.184-.307.438-.544.763-.71.33-.173.711-.259 1.143-.259zm8.553.038v4.435c0 .858-.21 1.491-.629 1.901-.413.416-1.039.624-1.877.624-.464 0-.905-.07-1.324-.211-.413-.134-.749-.323-1.01-.566l.343-.518c.241.218.534.387.877.509a3.3 3.3 0 0 0 1.096.182c.635 0 1.102-.15 1.4-.451.299-.294.448-.755.448-1.382v-.643c-.209.32-.486.563-.829.73-.337.166-.711.25-1.125.25-.47 0-.899-.102-1.286-.307a2.374 2.374 0 0 1-.905-.874c-.216-.378-.324-.803-.324-1.277s.108-.896.324-1.267c.222-.371.524-.659.905-.864s.81-.307 1.286-.307c.426 0 .81.086 1.153.259s.619.422.829.749v-.97h.648zM70.8 11.203c.362 0 .689-.077.981-.23.292-.16.517-.381.677-.662.165-.282.248-.602.248-.96s-.083-.675-.248-.95a1.627 1.627 0 0 0-.677-.653 1.975 1.975 0 0 0-.981-.24c-.362 0-.689.077-.981.23a1.707 1.707 0 0 0-.677.653c-.159.282-.238.602-.238.96s.079.678.238.96c.165.282.39.502.677.662.292.154.619.23.981.23zM61.897 18.762c-.133.197-.282.433-.447.708a26.934 26.934 0 0 0-.996 1.832 34.627 34.627 0 0 0-.823 1.857 54.136 54.136 0 0 0-.586 1.496c-.031.078-.087.117-.168.117a.166.166 0 0 1-.107-.037.194.194 0 0 1-.06-.103l-.047-.197a42.23 42.23 0 0 0-.116-.52l-.172-.75c-.062-.284-.128-.58-.2-.886l-.209-.938c-.071-.316-.138-.616-.2-.9a17.964 17.964 0 0 1-.628 1.57 9.27 9.27 0 0 1-.642 1.186c-.22.334-.448.616-.684.844a3.373 3.373 0 0 1-.735.553 2.94 2.94 0 0 1-.805.295 4.285 4.285 0 0 1-.888.089c-.161 0-.334-.019-.517-.056-.183-.034-.364-.089-.544-.164s-.352-.169-.517-.281a1.925 1.925 0 0 1-.74-.923 1.854 1.854 0 0 1-.112-.656c0-.253.053-.484.158-.694.106-.212.248-.394.428-.544.18-.153.387-.272.623-.356.239-.084.49-.127.754-.127.192 0 .364.017.516.052.155.031.292.072.41.122s.218.105.302.164c.084.059.154.114.209.164s.096.094.121.131a.28.28 0 0 0 .042.052.212.212 0 0 1 .028.098.18.18 0 0 1-.051.122.156.156 0 0 1-.126.056.174.174 0 0 1-.149-.08 7.08 7.08 0 0 1-.075-.084c-.046-.056-.123-.117-.228-.183s-.242-.125-.41-.178a1.988 1.988 0 0 0-.605-.08c-.217 0-.423.034-.618.103a1.574 1.574 0 0 0-.507.281 1.424 1.424 0 0 0-.345.436 1.194 1.194 0 0 0-.125.548c0 .197.032.377.097.539s.152.308.261.436c.109.128.234.239.377.333a2.475 2.475 0 0 0 1.359.412c.236 0 .465-.017.688-.052.227-.038.448-.106.666-.206.22-.1.436-.238.646-.412s.42-.403.628-.684c.208-.281.412-.62.614-1.017a13.45 13.45 0 0 0 .795-1.931c.058-.188.119-.377.181-.567a11.73 11.73 0 0 1-.117-.703 4.396 4.396 0 0 1-.032-.483c0-.137.011-.247.032-.328s.05-.142.084-.183a.204.204 0 0 1 .112-.08.375.375 0 0 1 .116-.019c.031 0 .065.006.102.019a.21.21 0 0 1 .107.084c.034.041.062.102.084.183s.032.191.032.328c0 .15-.014.323-.042.52s-.07.414-.126.652c.04.191.087.403.139.637l.163.731.172.769.172.769.158.717.144.619c.084-.213.186-.469.307-.769a39.75 39.75 0 0 1 .875-1.997c.167-.353.338-.686.512-.998a19.576 19.576 0 0 1 1.205-1.927 6.599 6.599 0 0 1 .489-.619.172.172 0 0 1 .126-.052c.053 0 .095.019.125.056a.167.167 0 0 1 .037.188 13.875 13.875 0 0 0-.727 2.471 8.284 8.284 0 0 0-.125 1.153 6.882 6.882 0 0 0 .019 1.012c.019.209.05.411.093.605s.102.377.176.548c.075.169.166.317.275.445s.237.231.386.309c.152.078.327.12.526.127a.145.145 0 0 1 .116.066c.031.038.047.078.047.122s-.017.083-.051.117a.167.167 0 0 1-.121.052.835.835 0 0 1-.149-.014 1.645 1.645 0 0 1-.591-.192c-.17-.1-.318-.222-.442-.366a2.132 2.132 0 0 1-.312-.497c-.08-.187-.146-.387-.195-.6s-.086-.433-.107-.661a8.518 8.518 0 0 1 .014-1.532c.028-.278.065-.548.112-.811.046-.266.101-.522.163-.769s.126-.477.191-.689zm5.355 4.73-.079.159a3.214 3.214 0 0 1-.149.272c-.059.103-.129.211-.209.323s-.171.216-.27.309-.206.172-.321.234a.781.781 0 0 1-.362.089.646.646 0 0 1-.456-.173 1.022 1.022 0 0 1-.265-.436c-.105.178-.231.32-.377.427a.757.757 0 0 1-.438.155.765.765 0 0 1-.312-.061.712.712 0 0 1-.237-.178.892.892 0 0 1-.204-.609c0-.244.04-.458.121-.642.084-.188.189-.344.316-.469s.267-.219.419-.281c.155-.063.304-.094.447-.094a1.086 1.086 0 0 1 .47.126.669.669 0 0 1 .135.089l.051.042a.197.197 0 0 1 .051.127.185.185 0 0 1-.051.127.167.167 0 0 1-.121.052.168.168 0 0 1-.126-.052.438.438 0 0 0-.042-.033c-.022-.019-.051-.037-.088-.056s-.082-.034-.135-.047a.564.564 0 0 0-.172-.023c-.096 0-.198.022-.307.066s-.208.112-.298.206c-.09.091-.166.206-.228.347a1.243 1.243 0 0 0-.069.675c.012.059.034.114.065.164s.073.091.126.122a.382.382 0 0 0 .196.047.428.428 0 0 0 .191-.056.652.652 0 0 0 .209-.173c.068-.078.128-.177.181-.295a1.44 1.44 0 0 0 .116-.422.164.164 0 0 1 .06-.108.175.175 0 0 1 .121-.047c.043 0 .08.017.112.052a.18.18 0 0 1 .056.117c.003.059.01.144.019.253.009.106.029.213.06.319.034.106.084.198.149.277s.155.117.27.117c.075 0 .147-.02.219-.061.074-.041.145-.094.214-.159.071-.069.138-.145.2-.23a3.366 3.366 0 0 0 .316-.516c.041-.081.075-.151.102-.211a.192.192 0 0 1 .065-.08.184.184 0 0 1 .097-.028.15.15 0 0 1 .126.061.177.177 0 0 1 .051.122.174.174 0 0 1-.014.066zm1.362 1.767c.583-.766.988-1.401 1.215-1.908a.162.162 0 0 1 .153-.103c.053 0 .096.019.13.056a.167.167 0 0 1 .037.188c-.137.313-.331.661-.582 1.045s-.569.819-.954 1.303c0 .197.002.394.005.591s.005.412.005.647c0 .234-.006.466-.019.694a6.86 6.86 0 0 1-.056.656 4.261 4.261 0 0 1-.116.577 1.759 1.759 0 0 1-.186.459.877.877 0 0 1-.274.305.635.635 0 0 1-.377.113c-.208 0-.368-.08-.48-.239s-.167-.386-.167-.68c0-.156.014-.327.042-.511.031-.181.074-.369.13-.563s.123-.391.2-.591c.081-.197.169-.389.265-.577s.2-.367.312-.539c.115-.172.236-.328.363-.469.003-.219.005-.436.005-.652.003-.216.008-.414.014-.595a1.038 1.038 0 0 1-.335.281.791.791 0 0 1-.381.103.71.71 0 0 1-.298-.061.689.689 0 0 1-.223-.178c-.062-.078-.11-.169-.144-.272s-.051-.216-.051-.337c0-.244.04-.458.121-.642.084-.188.189-.344.316-.469s.266-.219.419-.281c.155-.063.304-.094.447-.094.096 0 .184.012.265.038s.149.053.204.084a.669.669 0 0 1 .186.136.184.184 0 0 1 0 .254.167.167 0 0 1-.121.052.193.193 0 0 1-.126-.052l-.051-.038a.466.466 0 0 0-.195-.103.594.594 0 0 0-.158-.019.842.842 0 0 0-.307.066c-.112.041-.215.106-.312.197s-.176.208-.242.352a1.213 1.213 0 0 0-.097.511c0 .15.032.272.097.366.065.091.166.136.303.136a.443.443 0 0 0 .204-.056c.075-.037.146-.095.214-.173s.127-.177.176-.295c.053-.119.09-.259.112-.422a.164.164 0 0 1 .06-.108.175.175 0 0 1 .121-.047c.053 0 .093.019.121.056.031.038.047.08.047.127l-.005.145-.01.366-.014.534-.01.637zm-.353 1.027a4.62 4.62 0 0 0-.395.661 6.177 6.177 0 0 0-.498 1.435 3.423 3.423 0 0 0-.065.619c0 .116.01.208.028.277a.538.538 0 0 0 .074.159.237.237 0 0 0 .098.075.336.336 0 0 0 .102.019c.096 0 .18-.039.251-.117s.132-.183.181-.314c.05-.128.09-.277.121-.445s.054-.344.07-.525c.016-.178.026-.356.032-.534s.009-.342.009-.492v-.403c0-.134-.003-.272-.009-.412zm2.331-5.166c0 .119-.042.22-.126.305-.081.081-.18.122-.298.122a.417.417 0 0 1-.423-.427c0-.059.011-.114.033-.164a.425.425 0 0 1 .223-.23.433.433 0 0 1 .33 0 .378.378 0 0 1 .135.094c.04.038.071.083.093.136.022.05.033.105.033.164zm-.754 2.747c0-.45.028-.898.084-1.345a.19.19 0 0 1 .056-.112.178.178 0 0 1 .13-.052c.047 0 .085.019.117.056a.175.175 0 0 1 .046.122c0 .019-.005.075-.014.169a24.991 24.991 0 0 0-.056.75 9.73 9.73 0 0 0-.01.398c0 .166.016.3.047.403.034.1.076.178.126.234a.4.4 0 0 0 .163.112.546.546 0 0 0 .167.028c.087 0 .177-.031.27-.094s.187-.15.283-.262c.1-.113.199-.247.298-.403.099-.159.197-.336.293-.53a.158.158 0 0 1 .065-.07.162.162 0 0 1 .093-.028c.049 0 .09.019.121.056a.18.18 0 0 1 .033.202c-.037.072-.084.159-.14.262a4.546 4.546 0 0 1-.428.647 2.5 2.5 0 0 1-.27.291c-.096.084-.197.153-.303.206s-.212.08-.321.08c-.139 0-.262-.03-.368-.089s-.195-.139-.27-.239a1.108 1.108 0 0 1-.163-.352 1.827 1.827 0 0 1-.051-.441zm.493-2.747a.15.15 0 0 0-.051-.113.146.146 0 0 0-.224 0c-.031.031-.047.069-.047.113s.016.081.047.112.068.047.112.047.081-.016.112-.047a.147.147 0 0 0 .051-.112zm4.545 2.382a15.11 15.11 0 0 0-.097.187 2.472 2.472 0 0 1-.181.309c-.075.113-.165.23-.27.352s-.227.234-.363.337c-.137.1-.29.183-.461.248a1.48 1.48 0 0 1-.549.098c-.176 0-.333-.033-.469-.098a.973.973 0 0 1-.349-.267c-.096-.119-.169-.258-.219-.417s-.075-.336-.075-.53c0-.187.026-.362.079-.525.053-.166.124-.309.214-.431.093-.122.2-.217.321-.286a.744.744 0 0 1 .665-.052.568.568 0 0 1 .209.141.63.63 0 0 1 .186.413c0 .069-.01.133-.028.192a.63.63 0 0 1-.065.159.381.381 0 0 1-.088.108.172.172 0 0 1-.232-.014.183.183 0 0 1-.033-.193l.037-.056a.327.327 0 0 0 .055-.192c0-.066-.031-.125-.093-.178a.329.329 0 0 0-.228-.08.45.45 0 0 0-.251.08.757.757 0 0 0-.204.216 1.154 1.154 0 0 0-.144.314 1.412 1.412 0 0 0-.004.746c.031.116.078.219.139.309.062.088.14.158.233.211.096.053.209.08.34.08.167 0 .323-.03.465-.089.143-.062.273-.141.391-.234s.222-.195.312-.305c.09-.113.166-.217.228-.314a2.283 2.283 0 0 0 .214-.399.136.136 0 0 1 .061-.07.184.184 0 0 1 .097-.028c.053 0 .095.019.126.056.034.038.051.08.051.127a.204.204 0 0 1-.019.075z" style="fill:var(--color2, #000)"/>
    </symbol>
    <symbol id="header-logo" viewBox="0 0 76 32">
      <path fill="none" stroke="#000" stroke-linecap="round" stroke-linejoin="round" stroke-width="1.6" d="m8.8 9.943-8 8 8 8M24.8 9.943l8 8-8 8" style="stroke:var(--color2, #000)"/>
      <path d="m19.628 4.034-6.869 25.637a.654.654 0 0 1-1.262-.338l6.869-25.637a.654.654 0 0 1 1.262.338z" style="fill:var(--color2, #000)"/>
      <path fill="#d9d9d9" d="M18.366 3.696a.654.654 0 0 1 1.262.338l-.837 3.123-1.262-.338.837-3.123z" style="fill:var(--color5, #d9d9d9)"/>
      <path fill="none" stroke="#000" stroke-linecap="round" stroke-width=".8" d="m20.556 5.618 2.523.676M14.248 3.928l2.523.676M15.717.969l1.31 2.247M14.069 7.117l2.258-1.291M20.22 6.869l1.31 2.247M20.92 4.26l2.258-1.291" style="stroke:var(--color2, #000)"/>
      <path d="M44.013 12.058a3.69 3.69 0 0 1-1.805-.442 3.296 3.296 0 0 1-1.258-1.219c-.301-.525-.451-1.11-.451-1.757s.15-1.229.451-1.747c.307-.525.73-.934 1.267-1.229s1.139-.442 1.805-.442c.499 0 .96.083 1.382.25s.781.41 1.075.73l-.451.451c-.525-.531-1.187-.797-1.987-.797-.531 0-1.014.122-1.45.365s-.778.576-1.027.998c-.243.422-.365.896-.365 1.421s.122.998.365 1.421c.25.422.592.755 1.027.998s.918.365 1.45.365c.806 0 1.469-.269 1.987-.806l.451.451c-.294.32-.656.566-1.085.739-.422.166-.883.25-1.382.25zm5.676-.01a2.66 2.66 0 0 1-1.315-.326c-.39-.224-.698-.531-.922-.922s-.336-.832-.336-1.325.112-.934.336-1.325.531-.694.922-.912c.39-.218.829-.326 1.315-.326s.925.109 1.315.326c.39.218.694.522.912.912.224.39.336.832.336 1.325s-.112.934-.336 1.325a2.39 2.39 0 0 1-.912.922 2.65 2.65 0 0 1-1.315.326zm0-.605c.358 0 .678-.08.96-.24.288-.166.512-.4.672-.701s.24-.643.24-1.027c0-.384-.08-.726-.24-1.027s-.384-.531-.672-.691c-.282-.166-.602-.25-.96-.25s-.682.083-.97.25a1.74 1.74 0 0 0-.672.691c-.16.301-.24.643-.24 1.027s.08.726.24 1.027c.166.301.39.534.672.701.288.16.611.24.97.24zm8.563-6.566V12h-.653v-.998a2.08 2.08 0 0 1-.816.778c-.333.179-.71.269-1.133.269-.474 0-.902-.109-1.286-.326s-.685-.522-.902-.912c-.218-.39-.326-.835-.326-1.334s.109-.944.326-1.334a2.27 2.27 0 0 1 .902-.902 2.559 2.559 0 0 1 1.286-.326c.41 0 .778.086 1.104.259.333.166.605.413.816.739V4.879h.682zm-2.544 6.566c.352 0 .669-.08.95-.24.288-.166.512-.4.672-.701.166-.301.25-.643.25-1.027s-.083-.726-.25-1.027a1.665 1.665 0 0 0-.672-.691 1.836 1.836 0 0 0-.95-.25 1.9 1.9 0 0 0-.97.25 1.74 1.74 0 0 0-.672.691c-.16.301-.24.643-.24 1.027s.08.726.24 1.027c.166.301.39.534.672.701.288.16.611.24.97.24zM60.15 6.95h.682V12h-.682V6.95zm.346-1.104c-.141 0-.259-.048-.355-.144s-.144-.211-.144-.346c0-.128.048-.24.144-.336s.214-.144.355-.144.259.048.355.144a.43.43 0 0 1 .144.326c0 .141-.048.259-.144.355s-.214.144-.355.144zm4.805 1.066c.634 0 1.136.186 1.507.557.378.365.566.899.566 1.603V12h-.682V9.139c0-.525-.131-.925-.394-1.2s-.637-.413-1.123-.413c-.544 0-.976.163-1.296.49-.314.32-.47.765-.47 1.334V12h-.682V6.95h.653v.931c.186-.307.442-.544.768-.71a2.463 2.463 0 0 1 1.152-.259zm8.618.038v4.435c0 .858-.211 1.491-.634 1.901-.416.416-1.046.624-1.891.624-.467 0-.912-.07-1.334-.211-.416-.134-.755-.323-1.018-.566l.346-.518c.243.218.538.387.883.509.352.122.72.182 1.104.182.64 0 1.11-.15 1.411-.451.301-.294.451-.755.451-1.382v-.643c-.211.32-.49.563-.835.73-.339.166-.717.25-1.133.25-.474 0-.906-.102-1.296-.307a2.386 2.386 0 0 1-.912-.874c-.218-.378-.326-.803-.326-1.277s.109-.896.326-1.267c.224-.371.528-.659.912-.864s.816-.307 1.296-.307c.429 0 .816.086 1.162.259s.624.422.835.749v-.97h.653zm-2.582 4.253c.365 0 .694-.077.989-.23.294-.16.522-.381.682-.662.166-.282.25-.602.25-.96s-.083-.675-.25-.95a1.634 1.634 0 0 0-.682-.653 2.003 2.003 0 0 0-.989-.24c-.365 0-.694.077-.989.23a1.72 1.72 0 0 0-.682.653c-.16.282-.24.602-.24.96s.08.678.24.96c.166.282.394.502.682.662a2.1 2.1 0 0 0 .989.23zM62.366 18.762c-.134.197-.284.433-.45.708s-.342.583-.53.923c-.159.284-.317.588-.473.909a38.113 38.113 0 0 0-1.139 2.621 21.292 21.292 0 0 0-.281.732c-.031.078-.087.117-.169.117a.167.167 0 0 1-.108-.037.195.195 0 0 1-.061-.103l-.047-.197a30.845 30.845 0 0 0-.117-.52l-.173-.75c-.062-.284-.13-.58-.202-.886l-.211-.938a159.78 159.78 0 0 1-.202-.9c-.209.591-.42 1.114-.633 1.57a9.138 9.138 0 0 1-.647 1.186 5.033 5.033 0 0 1-.689.844 3.356 3.356 0 0 1-.741.553 2.978 2.978 0 0 1-.811.295c-.281.059-.58.089-.895.089-.163 0-.336-.019-.52-.056a2.907 2.907 0 0 1-1.068-.445 2.14 2.14 0 0 1-.441-.398 1.905 1.905 0 0 1-.305-.525 1.832 1.832 0 0 1-.112-.656c0-.253.053-.484.159-.694.106-.212.25-.394.431-.544.181-.153.391-.272.628-.356a2.29 2.29 0 0 1 .759-.127c.194 0 .367.017.52.052.156.031.294.072.413.122s.22.105.305.164.155.114.211.164c.056.05.097.094.122.131a.28.28 0 0 0 .042.052.201.201 0 0 1 .028.098.176.176 0 0 1-.052.122.157.157 0 0 1-.127.056.174.174 0 0 1-.15-.08 7.08 7.08 0 0 1-.075-.084c-.047-.056-.123-.117-.23-.183s-.244-.125-.412-.178a2.02 2.02 0 0 0-.609-.08c-.219 0-.427.034-.623.103a1.594 1.594 0 0 0-.511.281 1.43 1.43 0 0 0-.347.436 1.195 1.195 0 0 0-.127.548c0 .197.033.377.098.539s.153.308.263.436c.109.128.236.239.38.333a2.534 2.534 0 0 0 1.369.412c.238 0 .469-.017.694-.052.228-.038.452-.106.67-.206.222-.1.439-.238.652-.412s.423-.403.633-.684c.209-.281.416-.62.619-1.017a13.827 13.827 0 0 0 .802-1.931c.06-.187.12-.377.183-.567a11.73 11.73 0 0 1-.117-.703 4.432 4.432 0 0 1-.033-.483c0-.137.011-.247.033-.328s.05-.142.084-.183a.206.206 0 0 1 .113-.08.386.386 0 0 1 .117-.019c.031 0 .066.006.103.019a.209.209 0 0 1 .108.084c.034.041.063.102.084.183s.033.191.033.328c0 .15-.014.323-.042.52s-.07.414-.127.652c.041.191.088.403.141.638l.164.731.173.769.173.769.159.717.145.619c.084-.213.188-.469.309-.769a43.637 43.637 0 0 1 .881-1.997c.169-.353.341-.686.516-.998.247-.444.473-.823.68-1.139.206-.319.384-.581.534-.788a6.753 6.753 0 0 1 .493-.619.174.174 0 0 1 .127-.052.16.16 0 0 1 .127.056.168.168 0 0 1 .038.188 13.25 13.25 0 0 0-.37 1.051 12.244 12.244 0 0 0-.361 1.42 8.288 8.288 0 0 0-.126 1.153 6.882 6.882 0 0 0 .019 1.012c.019.209.05.411.094.605s.103.377.178.548c.075.169.167.317.277.445s.239.231.389.309c.153.078.33.12.53.127.05.003.089.025.117.066.031.038.047.078.047.122s-.017.083-.052.117a.168.168 0 0 1-.122.052c-.05 0-.1-.005-.15-.014a1.66 1.66 0 0 1-.595-.192c-.172-.1-.32-.222-.445-.366a2.106 2.106 0 0 1-.314-.497c-.081-.187-.147-.387-.197-.6s-.086-.433-.108-.661a8.518 8.518 0 0 1 .014-1.532 11.24 11.24 0 0 1 .468-2.269zm5.395 4.73-.08.159a3.574 3.574 0 0 1-.15.272c-.059.103-.13.211-.211.323s-.172.216-.272.309c-.1.094-.208.172-.323.234a.794.794 0 0 1-.366.089.653.653 0 0 1-.459-.173 1.016 1.016 0 0 1-.267-.436c-.106.178-.233.32-.38.427a.766.766 0 0 1-.441.155.775.775 0 0 1-.314-.061.72.72 0 0 1-.239-.178.897.897 0 0 1-.207-.61c0-.244.041-.458.122-.642.084-.188.191-.344.319-.469s.269-.219.422-.281c.156-.063.306-.094.45-.094a1.098 1.098 0 0 1 .473.126.68.68 0 0 1 .136.089l.052.042a.198.198 0 0 1 .052.127.182.182 0 0 1-.052.127.168.168 0 0 1-.122.052.172.172 0 0 1-.127-.052.438.438 0 0 0-.042-.033c-.022-.019-.052-.037-.089-.056s-.083-.034-.136-.047a.57.57 0 0 0-.173-.023.868.868 0 0 0-.609.272 1.14 1.14 0 0 0-.23.347 1.243 1.243 0 0 0-.07.675c.012.059.034.114.066.164a.363.363 0 0 0 .324.169c.056 0 .12-.019.192-.056a.669.669 0 0 0 .211-.173c.069-.078.13-.177.183-.295a1.44 1.44 0 0 0 .117-.422.165.165 0 0 1 .061-.108.176.176 0 0 1 .122-.047c.044 0 .081.017.112.052a.18.18 0 0 1 .056.117c.003.059.009.144.019.253.009.106.03.213.061.319.034.106.084.198.15.277s.156.117.272.117c.075 0 .148-.02.22-.061.075-.041.147-.094.216-.159.072-.069.139-.145.202-.23.066-.088.125-.175.178-.263s.1-.172.141-.253c.041-.081.075-.152.103-.211a.194.194 0 0 1 .066-.08.185.185 0 0 1 .098-.028c.053 0 .095.02.127.061a.178.178 0 0 1 .052.122.174.174 0 0 1-.014.066zm1.373 1.767c.587-.766.995-1.402 1.223-1.908a.173.173 0 0 1 .061-.075.162.162 0 0 1 .094-.028.17.17 0 0 1 .131.056.168.168 0 0 1 .038.188c-.138.313-.333.661-.586 1.045s-.573.819-.961 1.303c0 .197.002.394.005.591s.005.412.005.647c0 .234-.006.466-.019.694a6.86 6.86 0 0 1-.056.656 4.08 4.08 0 0 1-.117.577 1.693 1.693 0 0 1-.188.459.874.874 0 0 1-.277.305.642.642 0 0 1-.38.113c-.209 0-.37-.08-.483-.239s-.169-.386-.169-.68c0-.156.014-.327.042-.511.031-.181.075-.369.131-.563s.123-.391.202-.591c.081-.197.17-.389.267-.577s.202-.367.314-.539c.116-.172.238-.328.366-.469.003-.219.005-.436.005-.652.003-.216.008-.414.014-.595a1.038 1.038 0 0 1-.338.281.802.802 0 0 1-.384.103.722.722 0 0 1-.3-.061.686.686 0 0 1-.225-.178c-.062-.078-.111-.169-.145-.272s-.052-.216-.052-.338c0-.244.041-.458.122-.642.084-.188.191-.344.319-.469s.269-.219.422-.281c.156-.063.306-.094.45-.094.097 0 .186.012.267.038s.15.053.206.084c.059.031.105.061.136.089l.052.047a.182.182 0 0 1 0 .254.168.168 0 0 1-.122.052.193.193 0 0 1-.127-.052l-.052-.038a.46.46 0 0 0-.197-.103.607.607 0 0 0-.159-.019.851.851 0 0 0-.309.066c-.113.041-.217.106-.314.197s-.178.208-.244.352a1.198 1.198 0 0 0-.098.511c0 .15.033.272.098.366.066.091.167.136.305.136a.45.45 0 0 0 .206-.056c.075-.037.147-.095.216-.173s.128-.177.178-.295c.053-.119.091-.259.112-.422a.165.165 0 0 1 .061-.108.176.176 0 0 1 .122-.047c.053 0 .094.019.122.056.031.038.047.08.047.127l-.005.145-.009.366c-.003.153-.008.331-.014.534l-.009.638zm-.356 1.027c-.147.203-.28.423-.398.661-.119.241-.22.483-.305.727s-.15.48-.197.708a3.344 3.344 0 0 0-.066.619c0 .116.009.208.028.277a.537.537 0 0 0 .075.159.237.237 0 0 0 .098.075.348.348 0 0 0 .103.019c.097 0 .181-.039.253-.117s.133-.183.183-.314c.05-.128.091-.277.122-.445s.055-.344.07-.525c.016-.178.027-.356.033-.534s.009-.342.009-.492v-.403c0-.134-.003-.272-.009-.412zm2.349-5.166c0 .119-.042.22-.127.305-.081.081-.181.122-.3.122s-.22-.041-.305-.122a.424.424 0 0 1-.122-.305.428.428 0 0 1 .258-.394.435.435 0 0 1 .333 0 .382.382 0 0 1 .136.094.404.404 0 0 1 .127.3zm-.76 2.747c0-.45.028-.898.084-1.345a.19.19 0 0 1 .056-.112.179.179 0 0 1 .131-.052c.047 0 .086.019.117.056a.176.176 0 0 1 .047.122c0 .019-.005.075-.014.169-.006.094-.016.206-.028.337l-.028.413a9.626 9.626 0 0 0-.009.398c0 .166.016.3.047.403.034.1.077.178.127.234a.402.402 0 0 0 .164.112.553.553 0 0 0 .169.028c.088 0 .178-.031.272-.094s.189-.15.286-.262c.1-.113.2-.247.3-.403.1-.159.198-.336.295-.53a.16.16 0 0 1 .066-.07.162.162 0 0 1 .094-.028c.05 0 .091.019.122.056a.18.18 0 0 1 .052.122.155.155 0 0 1-.019.08c-.038.072-.084.159-.141.262s-.12.209-.192.319a4.53 4.53 0 0 1-.239.328 2.431 2.431 0 0 1-.272.291c-.097.084-.198.153-.305.206s-.214.08-.323.08c-.141 0-.264-.03-.37-.089s-.197-.139-.272-.239a1.088 1.088 0 0 1-.164-.352 1.832 1.832 0 0 1-.052-.441zm.497-2.747a.143.143 0 0 0-.052-.112c-.031-.034-.069-.052-.112-.052s-.081.017-.112.052c-.031.031-.047.069-.047.112s.016.081.047.112.069.047.112.047.081-.016.112-.047a.148.148 0 0 0 .052-.112zm4.58 2.382a6.798 6.798 0 0 0-.098.187 2.512 2.512 0 0 1-.183.309c-.075.113-.166.23-.272.352s-.228.234-.366.338c-.137.1-.292.183-.464.248a1.506 1.506 0 0 1-.553.098c-.178 0-.336-.033-.473-.098a.984.984 0 0 1-.352-.267c-.097-.119-.17-.258-.22-.417s-.075-.336-.075-.53c0-.187.027-.362.08-.525.053-.166.125-.309.216-.431.094-.122.202-.217.323-.286a.754.754 0 0 1 .67-.052.584.584 0 0 1 .211.141.633.633 0 0 1 .188.413.623.623 0 0 1-.028.192.632.632 0 0 1-.066.159.384.384 0 0 1-.089.108.175.175 0 0 1-.234-.014.183.183 0 0 1-.033-.193l.038-.056a.325.325 0 0 0 .057-.192c0-.066-.031-.125-.094-.178a.332.332 0 0 0-.23-.08.458.458 0 0 0-.253.08.75.75 0 0 0-.206.216 1.169 1.169 0 0 0-.145.314 1.412 1.412 0 0 0-.005.746.97.97 0 0 0 .141.309.717.717 0 0 0 .234.211c.097.053.211.08.342.08.169 0 .325-.03.469-.089.144-.062.275-.141.394-.234s.223-.195.314-.305c.091-.113.167-.217.23-.314.066-.1.116-.186.15-.258.038-.075.059-.122.066-.141a.136.136 0 0 1 .061-.07.185.185 0 0 1 .098-.028.16.16 0 0 1 .127.056c.034.038.052.08.052.127a.204.204 0 0 1-.019.075z" style="fill:var(--color2, #000)"/>
    </symbol>
    <symbol id="arrow-down" viewBox="0 0 50 32">
      <path stroke-linecap="round" stroke-linejoin="round" stroke-width="3.429" d="M45.714 4.571 25.143 27.428 4.572 4.571"/>
    </symbol>
    <symbol id="arrow-left" viewBox="0 0 16 32">
      <path stroke-width=".314" d="M16 .314.314 16 16 31.686"/>
    </symbol>
    <symbol id="arrow-right" viewBox="0 0 16 32">
      <path stroke-width=".314" d="M.314.314 16 16 .314 31.686"/>
    </symbol>
        <symbol id="icon-search" viewBox="0 0 32 32">
            <path
                d="M12.235 0C5.478 0 0 5.478 0 12.235S5.478 24.47 12.235 24.47c2.665 0 5.132-.852 7.141-2.299a12.323 12.323 0 0 0 2.796-2.796 12.18 12.18 0 0 0 2.298-7.14C24.47 5.478 18.992 0 12.235 0zm-8.47 12.235c0-4.678 3.792-8.471 8.471-8.471s8.471 3.792 8.471 8.471c0 4.678-3.792 8.471-8.471 8.471s-8.471-3.792-8.471-8.471z" />
            <path
                d="M30.118 27.294c-3.765-3.765-7.945-7.919-7.945-7.919a12.303 12.303 0 0 1-2.796 2.796s5.094 5.123 7.917 7.946c.478.478 2.095.703 2.824 0 .708-.683.543-2.28 0-2.824z" />
        </symbol>
    <symbol id="cross" viewBox="0 0 32 32">
      <path stroke-width="1.882" d="m1.882 1.882 28.235 28.235m-28.235.001L30.117 1.883"/>
    </symbol>
  </defs>
</svg>